<svg height="512pt" viewBox="0 0 512 512" width="512pt" xmlns="http://www.w3.org/2000/svg"><path d="m477.867188 93.867188c-18.84375.019531-34.113282 15.289062-34.132813 34.132812v34.132812c0 4.714844 3.820313 8.535157 8.53125 8.535157 4.714844 0 8.535156-3.820313 8.535156-8.535157v-34.132812c0-9.425781 7.640625-17.066406 17.066407-17.066406 9.425781 0 17.066406 7.640625 17.066406 17.066406v119.464844h-17.066406v-25.597656c-.011719-9.421876-7.644532-17.058594-17.066407-17.066407h-443.734375c-9.421875.007813-17.0585935 7.644531-17.066406 17.066407v68.265624c.0078125 9.421876 7.644531 17.058594 17.066406 17.066407v187.734375c.007813 9.421875 7.644532 17.058594 17.066406 17.066406h409.601563c9.421875-.007812 17.054687-7.644531 17.066406-17.066406v-102.398438h34.132813v110.929688c0 4.714844 3.820312 8.535156 8.53125 8.535156 4.714844 0 8.535156-3.820312 8.535156-8.535156v-375.464844c-.019531-18.84375-15.289062-34.113281-34.132812-34.132812zm-76.800782 401.066406v-162.132813c0-4.714843-3.820312-8.535156-8.53125-8.535156-4.714844 0-8.535156 3.820313-8.535156 8.535156v162.132813h-34.132812v-162.132813c0-4.714843-3.820313-8.535156-8.535157-8.535156-4.710937 0-8.53125 3.820313-8.53125 8.535156v162.132813h-34.132812v-162.132813c0-4.714843-3.820313-8.535156-8.535157-8.535156-4.710937 0-8.53125 3.820313-8.53125 8.535156v162.132813h-34.136718v-162.132813c0-4.714843-3.820313-8.535156-8.53125-8.535156-4.714844 0-8.535156 3.820313-8.535156 8.535156v162.132813h-34.132813v-162.132813c0-4.714843-3.820313-8.535156-8.53125-8.535156-4.714844 0-8.535156 3.820313-8.535156 8.535156v162.132813h-34.132813v-162.132813c0-4.714843-3.820312-8.535156-8.53125-8.535156-4.714844 0-8.535156 3.820313-8.535156 8.535156v162.132813h-34.132812v-162.132813c0-4.714843-3.820313-8.535156-8.535157-8.535156-4.710937 0-8.53125 3.820313-8.53125 8.535156v162.132813h-42.667969v-187.734375h409.601563l.003906 76.773437-.003906.027344.003906.027344.007813 110.90625zm51.199219-204.800782h-435.199219v-68.265624h443.734375l.003907 34.101562-.003907.03125.003907.03125.007812 34.101562zm42.667969 85.332032h-34.132813v-68.265625c9.421875-.007813 17.054688-7.644531 17.066407-17.066407v-25.597656h17.066406zm0 0"/><path d="m302.117188 93.449219c2.152343.703125 4.496093.519531 6.511718-.507813 2.019532-1.023437 3.546875-2.808594 4.246094-4.960937 1.992188-6.378907 2.957031-13.03125 2.859375-19.714844.253906-12.074219-3.109375-23.949219-9.660156-34.097656-5.042969-7.582031-7.632813-16.53125-7.40625-25.632813 0-4.714844-3.820313-8.535156-8.535157-8.535156-4.710937 0-8.53125 3.820312-8.53125 8.535156-.253906 12.074219 3.109376 23.949219 9.65625 34.097656 5.046876 7.582032 7.632813 16.53125 7.410157 25.632813.089843 4.882813-.59375 9.75-2.023438 14.421875-.703125 2.152344-.519531 4.496094.507813 6.515625 1.023437 2.019531 2.8125 3.546875 4.964844 4.246094zm0 0"/><path d="m290.132812 136.535156c4.714844 0 8.535157-3.824218 8.535157-8.535156-.011719-2.480469.140625-4.957031.453125-7.417969.515625-4.617187-2.757813-8.800781-7.363282-9.410156-4.609374-.605469-8.855468 2.582031-9.554687 7.179687-.410156 3.199219-.613281 6.421876-.601563 9.648438 0 2.261719.898438 4.433594 2.496094 6.035156 1.601563 1.597656 3.773438 2.5 6.035156 2.5zm0 0"/><path d="m222.382812 68.265625c2.457032 0 4.796876-1.058594 6.421876-2.90625 1.621093-1.847656 2.367187-4.304687 2.050781-6.742187-.3125-2.460938-.464844-4.9375-.457031-7.417969 0-4.710938-3.820313-8.53125-8.53125-8.53125-4.714844 0-8.535157 3.820312-8.535157 8.53125-.007812 3.226562.195313 6.449219.605469 9.652343.558594 4.238282 4.167969 7.40625 8.445312 7.414063zm0 0"/><path d="m221.867188 179.199219c4.710937 0 8.53125-3.820313 8.53125-8.53125-.222657-9.105469 2.363281-18.054688 7.410156-25.632813 6.546875-10.152344 9.910156-22.027344 9.65625-34.101562.101562-6.679688-.867188-13.335938-2.863282-19.710938-1.492187-4.441406-6.28125-6.855468-10.738281-5.402344-4.453125 1.453126-6.902343 6.226563-5.488281 10.691407 1.433594 4.667969 2.117188 9.539062 2.023438 14.421875.226562 9.101562-2.359376 18.054687-7.40625 25.632812-6.550782 10.148438-9.914063 22.023438-9.660157 34.101563 0 2.261719.898438 4.433593 2.5 6.03125 1.601563 1.601562 3.769531 2.5 6.035157 2.5zm0 0"/><path d="m358.917969 68.265625c2.457031 0 4.796875-1.058594 6.417969-2.90625 1.621093-1.847656 2.371093-4.304687 2.050781-6.742187-.3125-2.460938-.464844-4.9375-.453125-7.417969 0-4.710938-3.820313-8.53125-8.535156-8.53125-4.710938 0-8.53125 3.820312-8.53125 8.53125-.007813 3.226562.191406 6.449219.605468 9.652343.558594 4.238282 4.167969 7.40625 8.445313 7.414063zm0 0"/><path d="m358.398438 179.199219c4.714843 0 8.535156-3.820313 8.535156-8.53125-.222656-9.105469 2.363281-18.054688 7.410156-25.632813 6.546875-10.152344 9.910156-22.027344 9.65625-34.101562.097656-6.679688-.867188-13.335938-2.867188-19.710938-1.488281-4.441406-6.28125-6.855468-10.734374-5.402344-4.453126 1.453126-6.90625 6.226563-5.488282 10.691407 1.433594 4.667969 2.117188 9.539062 2.023438 14.421875.222656 9.101562-2.363282 18.054687-7.410156 25.632812-6.546876 10.148438-9.910157 22.023438-9.65625 34.101563 0 4.710937 3.820312 8.53125 8.53125 8.53125zm0 0"/><path d="m165.582031 93.449219c2.152344.703125 4.496094.519531 6.515625-.507813 2.015625-1.023437 3.542969-2.808594 4.242188-4.960937 1.992187-6.378907 2.957031-13.03125 2.859375-19.714844.253906-12.074219-3.109375-23.949219-9.65625-34.097656-5.046875-7.582031-7.632813-16.53125-7.410157-25.632813 0-4.714844-3.820312-8.535156-8.53125-8.535156-4.714843 0-8.535156 3.820312-8.535156 8.535156-.253906 12.074219 3.109375 23.949219 9.660156 34.097656 5.042969 7.582032 7.632813 16.53125 7.40625 25.632813.09375 4.882813-.589843 9.75-2.019531 14.421875-.703125 2.152344-.523437 4.496094.503907 6.515625 1.027343 2.019531 2.8125 3.546875 4.964843 4.246094zm0 0"/><path d="m153.601562 136.535156c4.710938 0 8.53125-3.824218 8.53125-8.535156-.011718-2.480469.140626-4.957031.453126-7.417969.519531-4.617187-2.753907-8.800781-7.363282-9.410156-4.605468-.605469-8.851562 2.582031-9.550781 7.179687-.414063 3.199219-.613281 6.421876-.605469 9.648438 0 2.261719.898438 4.433594 2.5 6.035156 1.601563 1.597656 3.769532 2.5 6.035156 2.5zm0 0"/><path d="m85.847656 68.265625c2.460938 0 4.800782-1.058594 6.421875-2.90625 1.621094-1.847656 2.371094-4.304687 2.050781-6.742187-.3125-2.460938-.464843-4.9375-.453124-7.417969 0-4.710938-3.820313-8.53125-8.535157-8.53125-4.710937 0-8.53125 3.820312-8.53125 8.53125-.007812 3.226562.191407 6.449219.601563 9.652343.5625 4.238282 4.171875 7.40625 8.445312 7.414063zm0 0"/><path d="m85.332031 179.199219c4.714844 0 8.535157-3.820313 8.535157-8.53125-.226563-9.105469 2.363281-18.054688 7.40625-25.632813 6.550781-10.152344 9.914062-22.027344 9.660156-34.101562.097656-6.679688-.867188-13.335938-2.867188-19.710938-1.488281-4.441406-6.28125-6.855468-10.734375-5.402344-4.457031 1.453126-6.90625 6.226563-5.492187 10.691407 1.4375 4.667969 2.121094 9.539062 2.027344 14.421875.222656 9.101562-2.363282 18.054687-7.410157 25.632812-6.546875 10.148438-9.910156 22.023438-9.65625 34.101563 0 2.261719.898438 4.433593 2.5 6.03125 1.597657 1.601562 3.769531 2.5 6.03125 2.5zm0 0"/></svg>