<svg height="480pt" viewBox="-88 0 480 480.01627" width="480pt" xmlns="http://www.w3.org/2000/svg"><path d="m19.832031 183.574219c14.574219 61.210937 69.265625 104.40625 132.183594 104.40625 62.921875 0 117.609375-43.195313 132.183594-104.40625 4.816406-.800781 9.253906-3.105469 12.679687-6.582031 4.589844-4.457032 7.167969-10.59375 7.136719-16.992188 0-13.253906-10.746094-24-24-24h-256c-13.226563.066406-23.9335938 10.773438-24 24 .0273438 11.621094 8.375 21.550781 19.816406 23.574219zm132.183594 88.425781c-53.953125.003906-101.277344-36-115.664063-88h231.199219c-14.339843 51.976562-61.617187 87.984375-115.535156 88zm-133.550781-117.695312c1.457031-1.492188 3.464844-2.324219 5.550781-2.304688h256c4.417969 0 8 3.582031 8 8 .007813 2.15625-.878906 4.21875-2.445313 5.695312-1.460937 1.492188-3.464843 2.324219-5.554687 2.304688h-256c-4.417969 0-8-3.582031-8-8-.007813-2.15625.878906-4.21875 2.449219-5.695312zm0 0"/><path d="m88.335938 112c0 4.417969 3.582031 8 8 8 4.417968 0 8-3.582031 8-8 .042968-4.636719 2.113281-9.019531 5.664062-12 6.191406-5.90625 9.691406-14.085938 9.691406-22.640625s-3.5-16.734375-9.691406-22.640625c-3.589844-2.960938-5.671875-7.375-5.671875-12.03125s2.082031-9.066406 5.671875-12.03125c6.179688-5.917969 9.679688-14.101562 9.695312-22.65625 0-4.417969-3.582031-8-8-8-4.417968 0-8 3.582031-8 8-.046874 4.636719-2.117187 9.019531-5.671874 12-6.1875 5.90625-9.6875 14.089844-9.6875 22.644531 0 8.554688 3.5 16.738281 9.6875 22.644531 3.589843 2.960938 5.671874 7.371094 5.671874 12.023438s-2.082031 9.0625-5.671874 12.023438c-6.175782 5.921874-9.675782 14.105468-9.6875 22.664062zm0 0"/><path d="m136.335938 112c0 4.417969 3.582031 8 8 8 4.417968 0 8-3.582031 8-8 .042968-4.636719 2.113281-9.019531 5.664062-12 6.191406-5.90625 9.691406-14.085938 9.691406-22.640625s-3.5-16.734375-9.691406-22.640625c-3.589844-2.960938-5.671875-7.375-5.671875-12.03125s2.082031-9.066406 5.671875-12.03125c6.179688-5.917969 9.679688-14.101562 9.695312-22.65625 0-4.417969-3.582031-8-8-8-4.417968 0-8 3.582031-8 8-.046874 4.636719-2.117187 9.019531-5.671874 12-6.1875 5.90625-9.6875 14.089844-9.6875 22.644531 0 8.554688 3.5 16.738281 9.6875 22.644531 3.589843 2.960938 5.671874 7.371094 5.671874 12.023438s-2.082031 9.0625-5.671874 12.023438c-6.175782 5.921874-9.675782 14.105468-9.6875 22.664062zm0 0"/><path d="m184.335938 112c0 4.417969 3.582031 8 8 8 4.417968 0 8-3.582031 8-8 .042968-4.636719 2.113281-9.019531 5.664062-12 6.191406-5.90625 9.691406-14.085938 9.691406-22.640625s-3.5-16.734375-9.691406-22.640625c-3.589844-2.960938-5.671875-7.375-5.671875-12.03125s2.082031-9.066406 5.671875-12.03125c6.179688-5.917969 9.679688-14.101562 9.695312-22.65625 0-4.417969-3.582031-8-8-8-4.417968 0-8 3.582031-8 8-.046874 4.636719-2.117187 9.019531-5.671874 12-6.1875 5.90625-9.6875 14.089844-9.6875 22.644531 0 8.554688 3.5 16.738281 9.6875 22.644531 3.589843 2.960938 5.671874 7.371094 5.671874 12.023438s-2.082031 9.0625-5.671874 12.023438c-6.175782 5.921874-9.675782 14.105468-9.6875 22.664062zm0 0"/><path d="m164.082031 344.457031 129.238281-114.464843c3.3125-2.929688 3.625-7.992188.695313-11.304688s-7.988281-3.625-11.304687-.695312l-130.695313 115.777343-130.695313-115.761719c-3.3125-2.929687-8.375-2.617187-11.304687.695313-2.929687 3.316406-2.617187 8.375.695313 11.304687l129.242187 114.449219-137.242187 121.550781c-3.3125 2.929688-3.625 7.992188-.695313 11.304688s7.992187 3.625 11.304687.695312l42.886719-38.007812h191.617188l42.886719 37.992188c3.316406 2.929687 8.375 2.617187 11.304687-.695313 2.929687-3.316406 2.617187-8.375-.695313-11.304687zm-89.808593 79.542969 77.742187-68.855469 77.746094 68.855469zm0 0"/></svg>